<mxfile host="app.diagrams.net" modified="2023-07-24T05:12:47.392Z" agent="Mozilla/5.0 (Macintosh; Intel Mac OS X 10_15_7) AppleWebKit/605.1.15 (KHTML, like Gecko) Version/16.5.2 Safari/605.1.15" etag="UB2RUG57nLGIJbUiTmkZ" version="21.6.5" type="github">
  <diagram name="第 1 页" id="kzD5A3jw51wFOWdprAX6">
    <mxGraphModel dx="1193" dy="830" grid="1" gridSize="10" guides="1" tooltips="1" connect="1" arrows="1" fold="1" page="1" pageScale="1" pageWidth="1169" pageHeight="827" math="0" shadow="0">
      <root>
        <mxCell id="0" />
        <mxCell id="1" parent="0" />
        <mxCell id="p9LRicOxTsJBR3PSWR2q-7" value="" style="rounded=1;whiteSpace=wrap;html=1;" parent="1" vertex="1">
          <mxGeometry x="340" y="130" width="600" height="360" as="geometry" />
        </mxCell>
        <mxCell id="p9LRicOxTsJBR3PSWR2q-5" style="edgeStyle=orthogonalEdgeStyle;rounded=0;orthogonalLoop=1;jettySize=auto;html=1;" parent="1" source="p9LRicOxTsJBR3PSWR2q-1" target="p9LRicOxTsJBR3PSWR2q-3" edge="1">
          <mxGeometry relative="1" as="geometry" />
        </mxCell>
        <mxCell id="p9LRicOxTsJBR3PSWR2q-1" value="" style="shape=image;html=1;verticalAlign=top;verticalLabelPosition=bottom;labelBackgroundColor=#ffffff;imageAspect=0;aspect=fixed;image=https://cdn1.iconfinder.com/data/icons/computer-hardware-hand-drawn-vol-1/52/signal__device__technology__radar__satellite__antenna__tower-128.png" parent="1" vertex="1">
          <mxGeometry x="50" y="260" width="80" height="80" as="geometry" />
        </mxCell>
        <mxCell id="p9LRicOxTsJBR3PSWR2q-2" value="数传终端" style="text;html=1;strokeColor=none;fillColor=none;align=center;verticalAlign=middle;whiteSpace=wrap;rounded=0;" parent="1" vertex="1">
          <mxGeometry x="60" y="340" width="60" height="30" as="geometry" />
        </mxCell>
        <mxCell id="p9LRicOxTsJBR3PSWR2q-13" style="edgeStyle=orthogonalEdgeStyle;rounded=0;orthogonalLoop=1;jettySize=auto;html=1;" parent="1" source="p9LRicOxTsJBR3PSWR2q-3" target="p9LRicOxTsJBR3PSWR2q-9" edge="1">
          <mxGeometry relative="1" as="geometry" />
        </mxCell>
        <mxCell id="p9LRicOxTsJBR3PSWR2q-3" value="" style="fontColor=#0066CC;verticalAlign=top;verticalLabelPosition=bottom;labelPosition=center;align=center;html=1;outlineConnect=0;fillColor=#CCCCCC;strokeColor=#6881B3;gradientColor=none;gradientDirection=north;strokeWidth=2;shape=mxgraph.networks.hub;" parent="1" vertex="1">
          <mxGeometry x="190" y="285" width="100" height="30" as="geometry" />
        </mxCell>
        <mxCell id="p9LRicOxTsJBR3PSWR2q-4" value="串口服务器" style="text;html=1;strokeColor=none;fillColor=none;align=center;verticalAlign=middle;whiteSpace=wrap;rounded=0;" parent="1" vertex="1">
          <mxGeometry x="200" y="325" width="80" height="30" as="geometry" />
        </mxCell>
        <mxCell id="p9LRicOxTsJBR3PSWR2q-8" value="后台" style="text;html=1;strokeColor=none;fillColor=none;align=center;verticalAlign=middle;whiteSpace=wrap;rounded=0;fontSize=24;" parent="1" vertex="1">
          <mxGeometry x="830" y="440" width="60" height="30" as="geometry" />
        </mxCell>
        <mxCell id="p9LRicOxTsJBR3PSWR2q-18" value="" style="edgeStyle=orthogonalEdgeStyle;rounded=0;orthogonalLoop=1;jettySize=auto;html=1;entryX=0;entryY=0.62;entryDx=0;entryDy=0;entryPerimeter=0;" parent="1" source="p9LRicOxTsJBR3PSWR2q-9" target="p9LRicOxTsJBR3PSWR2q-11" edge="1">
          <mxGeometry relative="1" as="geometry">
            <mxPoint x="455" y="200" as="targetPoint" />
          </mxGeometry>
        </mxCell>
        <mxCell id="o27GzuYat8IJqjDEJiFk-3" style="edgeStyle=orthogonalEdgeStyle;rounded=0;orthogonalLoop=1;jettySize=auto;html=1;entryX=-0.022;entryY=0.652;entryDx=0;entryDy=0;entryPerimeter=0;" edge="1" parent="1" source="p9LRicOxTsJBR3PSWR2q-9" target="o27GzuYat8IJqjDEJiFk-1">
          <mxGeometry relative="1" as="geometry" />
        </mxCell>
        <mxCell id="p9LRicOxTsJBR3PSWR2q-9" value="" style="image;sketch=0;aspect=fixed;html=1;points=[];align=center;fontSize=12;image=img/lib/mscae/Connections.svg;" parent="1" vertex="1">
          <mxGeometry x="388.75" y="275" width="50" height="50" as="geometry" />
        </mxCell>
        <mxCell id="p9LRicOxTsJBR3PSWR2q-10" value="TCP服务器&lt;br&gt;（北斗终端驱动程序）" style="text;html=1;strokeColor=none;fillColor=none;align=center;verticalAlign=middle;whiteSpace=wrap;rounded=0;" parent="1" vertex="1">
          <mxGeometry x="340" y="325" width="147.5" height="40" as="geometry" />
        </mxCell>
        <mxCell id="p9LRicOxTsJBR3PSWR2q-29" style="edgeStyle=orthogonalEdgeStyle;rounded=0;orthogonalLoop=1;jettySize=auto;html=1;" parent="1" source="p9LRicOxTsJBR3PSWR2q-11" target="p9LRicOxTsJBR3PSWR2q-25" edge="1">
          <mxGeometry relative="1" as="geometry" />
        </mxCell>
        <mxCell id="p9LRicOxTsJBR3PSWR2q-30" value="消息消费" style="edgeLabel;html=1;align=center;verticalAlign=middle;resizable=0;points=[];" parent="p9LRicOxTsJBR3PSWR2q-29" vertex="1" connectable="0">
          <mxGeometry x="0.2914" y="-2" relative="1" as="geometry">
            <mxPoint as="offset" />
          </mxGeometry>
        </mxCell>
        <mxCell id="p9LRicOxTsJBR3PSWR2q-11" value="" style="image;sketch=0;aspect=fixed;html=1;points=[];align=center;fontSize=12;image=img/lib/mscae/Event_Hubs.svg;" parent="1" vertex="1">
          <mxGeometry x="520" y="160" width="50" height="52.08" as="geometry" />
        </mxCell>
        <mxCell id="p9LRicOxTsJBR3PSWR2q-12" value="消息队列" style="text;html=1;strokeColor=none;fillColor=none;align=center;verticalAlign=middle;whiteSpace=wrap;rounded=0;" parent="1" vertex="1">
          <mxGeometry x="514" y="210" width="60" height="30" as="geometry" />
        </mxCell>
        <mxCell id="p9LRicOxTsJBR3PSWR2q-19" value="" style="image;sketch=0;aspect=fixed;html=1;points=[];align=center;fontSize=12;image=img/lib/mscae/Database_General.svg;" parent="1" vertex="1">
          <mxGeometry x="740" y="150" width="38" height="50" as="geometry" />
        </mxCell>
        <mxCell id="p9LRicOxTsJBR3PSWR2q-20" value="数据库" style="text;html=1;strokeColor=none;fillColor=none;align=center;verticalAlign=middle;whiteSpace=wrap;rounded=0;" parent="1" vertex="1">
          <mxGeometry x="729" y="200" width="60" height="30" as="geometry" />
        </mxCell>
        <mxCell id="p9LRicOxTsJBR3PSWR2q-33" style="edgeStyle=orthogonalEdgeStyle;rounded=0;orthogonalLoop=1;jettySize=auto;html=1;entryX=1;entryY=0.5;entryDx=0;entryDy=0;" parent="1" source="p9LRicOxTsJBR3PSWR2q-21" target="p9LRicOxTsJBR3PSWR2q-7" edge="1">
          <mxGeometry relative="1" as="geometry" />
        </mxCell>
        <mxCell id="p9LRicOxTsJBR3PSWR2q-21" value="" style="image;points=[];aspect=fixed;html=1;align=center;shadow=0;dashed=0;image=img/lib/allied_telesis/computer_and_terminals/Personal_Computer.svg;" parent="1" vertex="1">
          <mxGeometry x="1050" y="150" width="45.6" height="61.800000000000004" as="geometry" />
        </mxCell>
        <mxCell id="p9LRicOxTsJBR3PSWR2q-37" style="edgeStyle=orthogonalEdgeStyle;rounded=0;orthogonalLoop=1;jettySize=auto;html=1;entryX=1;entryY=0.5;entryDx=0;entryDy=0;" parent="1" source="p9LRicOxTsJBR3PSWR2q-22" target="p9LRicOxTsJBR3PSWR2q-7" edge="1">
          <mxGeometry relative="1" as="geometry" />
        </mxCell>
        <mxCell id="p9LRicOxTsJBR3PSWR2q-22" value="" style="image;points=[];aspect=fixed;html=1;align=center;shadow=0;dashed=0;image=img/lib/allied_telesis/computer_and_terminals/Personal_Computer.svg;" parent="1" vertex="1">
          <mxGeometry x="1050" y="230" width="45.6" height="61.800000000000004" as="geometry" />
        </mxCell>
        <mxCell id="p9LRicOxTsJBR3PSWR2q-36" style="edgeStyle=orthogonalEdgeStyle;rounded=0;orthogonalLoop=1;jettySize=auto;html=1;entryX=1;entryY=0.5;entryDx=0;entryDy=0;" parent="1" source="p9LRicOxTsJBR3PSWR2q-23" target="p9LRicOxTsJBR3PSWR2q-7" edge="1">
          <mxGeometry relative="1" as="geometry" />
        </mxCell>
        <mxCell id="p9LRicOxTsJBR3PSWR2q-23" value="" style="image;points=[];aspect=fixed;html=1;align=center;shadow=0;dashed=0;image=img/lib/allied_telesis/computer_and_terminals/Personal_Computer.svg;" parent="1" vertex="1">
          <mxGeometry x="1050" y="400" width="45.6" height="61.800000000000004" as="geometry" />
        </mxCell>
        <mxCell id="p9LRicOxTsJBR3PSWR2q-35" style="edgeStyle=orthogonalEdgeStyle;rounded=0;orthogonalLoop=1;jettySize=auto;html=1;entryX=1;entryY=0.5;entryDx=0;entryDy=0;" parent="1" source="p9LRicOxTsJBR3PSWR2q-24" target="p9LRicOxTsJBR3PSWR2q-7" edge="1">
          <mxGeometry relative="1" as="geometry" />
        </mxCell>
        <mxCell id="p9LRicOxTsJBR3PSWR2q-24" value="" style="image;points=[];aspect=fixed;html=1;align=center;shadow=0;dashed=0;image=img/lib/allied_telesis/computer_and_terminals/Personal_Computer.svg;" parent="1" vertex="1">
          <mxGeometry x="1050" y="315" width="45.6" height="61.800000000000004" as="geometry" />
        </mxCell>
        <mxCell id="p9LRicOxTsJBR3PSWR2q-27" style="edgeStyle=orthogonalEdgeStyle;rounded=0;orthogonalLoop=1;jettySize=auto;html=1;" parent="1" source="p9LRicOxTsJBR3PSWR2q-25" target="p9LRicOxTsJBR3PSWR2q-9" edge="1">
          <mxGeometry relative="1" as="geometry" />
        </mxCell>
        <mxCell id="p9LRicOxTsJBR3PSWR2q-28" value="HTTP请求" style="edgeLabel;html=1;align=center;verticalAlign=middle;resizable=0;points=[];" parent="p9LRicOxTsJBR3PSWR2q-27" vertex="1" connectable="0">
          <mxGeometry x="-0.3538" y="-1" relative="1" as="geometry">
            <mxPoint as="offset" />
          </mxGeometry>
        </mxCell>
        <mxCell id="p9LRicOxTsJBR3PSWR2q-31" style="edgeStyle=orthogonalEdgeStyle;rounded=0;orthogonalLoop=1;jettySize=auto;html=1;" parent="1" source="p9LRicOxTsJBR3PSWR2q-25" target="p9LRicOxTsJBR3PSWR2q-20" edge="1">
          <mxGeometry relative="1" as="geometry" />
        </mxCell>
        <mxCell id="p9LRicOxTsJBR3PSWR2q-32" value="读写消息记录" style="edgeLabel;html=1;align=center;verticalAlign=middle;resizable=0;points=[];" parent="p9LRicOxTsJBR3PSWR2q-31" vertex="1" connectable="0">
          <mxGeometry x="0.0667" y="-1" relative="1" as="geometry">
            <mxPoint as="offset" />
          </mxGeometry>
        </mxCell>
        <mxCell id="p9LRicOxTsJBR3PSWR2q-25" value="" style="image;sketch=0;aspect=fixed;html=1;points=[];align=center;fontSize=12;image=img/lib/mscae/Cloud_Services_Classic.svg;" parent="1" vertex="1">
          <mxGeometry x="615" y="279" width="50" height="42" as="geometry" />
        </mxCell>
        <mxCell id="VRIL-dsUyF5xxoI3rEdO-5" value="" style="edgeStyle=orthogonalEdgeStyle;rounded=0;orthogonalLoop=1;jettySize=auto;html=1;" parent="1" source="p9LRicOxTsJBR3PSWR2q-26" target="VRIL-dsUyF5xxoI3rEdO-4" edge="1">
          <mxGeometry relative="1" as="geometry" />
        </mxCell>
        <mxCell id="VRIL-dsUyF5xxoI3rEdO-6" value="SSE推送" style="edgeLabel;html=1;align=center;verticalAlign=middle;resizable=0;points=[];" parent="VRIL-dsUyF5xxoI3rEdO-5" vertex="1" connectable="0">
          <mxGeometry x="-0.02" y="-1" relative="1" as="geometry">
            <mxPoint as="offset" />
          </mxGeometry>
        </mxCell>
        <mxCell id="p9LRicOxTsJBR3PSWR2q-26" value="后端服务" style="text;html=1;strokeColor=none;fillColor=none;align=center;verticalAlign=middle;whiteSpace=wrap;rounded=0;" parent="1" vertex="1">
          <mxGeometry x="610" y="325" width="60" height="30" as="geometry" />
        </mxCell>
        <mxCell id="VRIL-dsUyF5xxoI3rEdO-4" value="" style="shape=waypoint;sketch=0;size=6;pointerEvents=1;points=[];fillColor=none;resizable=0;rotatable=0;perimeter=centerPerimeter;snapToPoint=1;" parent="1" vertex="1">
          <mxGeometry x="930" y="300" width="20" height="20" as="geometry" />
        </mxCell>
        <mxCell id="o27GzuYat8IJqjDEJiFk-5" style="edgeStyle=orthogonalEdgeStyle;rounded=0;orthogonalLoop=1;jettySize=auto;html=1;" edge="1" parent="1" source="o27GzuYat8IJqjDEJiFk-1" target="p9LRicOxTsJBR3PSWR2q-25">
          <mxGeometry relative="1" as="geometry" />
        </mxCell>
        <mxCell id="o27GzuYat8IJqjDEJiFk-1" value="" style="sketch=0;outlineConnect=0;fontColor=#232F3E;gradientColor=none;fillColor=#3F8624;strokeColor=none;dashed=0;verticalLabelPosition=bottom;verticalAlign=top;align=center;html=1;fontSize=12;fontStyle=0;aspect=fixed;pointerEvents=1;shape=mxgraph.aws4.mqtt_protocol;" vertex="1" parent="1">
          <mxGeometry x="520" y="384" width="46" height="46" as="geometry" />
        </mxCell>
        <mxCell id="o27GzuYat8IJqjDEJiFk-4" value="MQTT服务" style="text;html=1;strokeColor=none;fillColor=none;align=center;verticalAlign=middle;whiteSpace=wrap;rounded=0;" vertex="1" parent="1">
          <mxGeometry x="514" y="430" width="60" height="30" as="geometry" />
        </mxCell>
      </root>
    </mxGraphModel>
  </diagram>
</mxfile>
